<svg width="434" height="449" viewBox="0 0 434 449" fill="none" xmlns="http://www.w3.org/2000/svg">
<path d="M42.6061 144.148C40.0082 148.403 37.633 152.728 35.4433 157.125C35.332 157.302 35.2578 157.515 35.1464 157.692C34.5897 158.791 34.0701 159.89 33.5506 160.989C33.1794 161.805 32.8083 162.585 32.4372 163.4C32.2145 163.861 31.9918 164.322 31.8062 164.818C24.3465 181.553 19.3734 199.244 17.0724 217.291C16.9982 217.787 16.9611 218.283 16.8868 218.78C16.7755 219.666 16.6642 220.552 16.5899 221.439C16.4786 222.644 16.3673 223.85 16.2559 225.055C16.2559 225.268 16.2188 225.481 16.2188 225.693C15.8477 230.515 15.625 235.408 15.625 240.336C15.625 245.264 15.8106 250.157 16.2188 254.979C16.2188 255.191 16.2559 255.404 16.2559 255.617C16.3673 256.822 16.4786 258.028 16.5899 259.233C16.6642 260.119 16.7755 261.006 16.8868 261.892C16.9611 262.388 16.9982 262.885 17.0724 263.381C19.3734 281.427 24.3094 299.119 31.8062 315.854C32.0289 316.314 32.2145 316.775 32.4372 317.272C32.8083 318.087 33.1794 318.903 33.5506 319.683C34.0701 320.782 34.6268 321.881 35.1464 322.98C35.2578 323.157 35.332 323.37 35.4433 323.547C37.633 327.908 40.0453 332.233 42.6061 336.523L217 240.336L42.6061 144.148Z" fill="#5D2A9D"/>
<path d="M217 240L105 302.5C106.655 305.275 108.411 307.966 110.241 310.559C110.317 310.669 110.404 310.79 110.48 310.899C110.944 311.553 111.408 312.196 111.884 312.826C112.235 313.298 112.586 313.759 112.937 314.22C113.138 314.486 113.339 314.753 113.539 315.007C120.887 324.46 129.589 332.859 139.357 339.961C139.633 340.155 139.909 340.349 140.185 340.555C140.661 340.894 141.138 341.234 141.627 341.573C142.292 342.034 142.956 342.482 143.621 342.93C143.746 343.015 143.859 343.088 143.984 343.173C146.68 344.954 149.451 346.639 152.323 348.239C155.194 349.839 158.103 351.317 161.038 352.687C161.163 352.747 161.301 352.808 161.426 352.868C162.166 353.208 162.906 353.535 163.646 353.862C164.185 354.092 164.724 354.335 165.276 354.565C165.589 354.698 165.903 354.832 166.216 354.965C177.464 359.595 189.351 362.673 201.489 364.103C201.828 364.14 202.166 364.176 202.505 364.212C203.094 364.273 203.696 364.333 204.285 364.394C205.1 364.467 205.903 364.539 206.718 364.6C206.856 364.6 207.006 364.624 207.144 364.636C210.392 364.879 213.677 365 216.987 365V240.012L217 240Z" fill="#FDC82E"/>
<path d="M386.851 357.146C387.613 356.12 388.375 355.094 389.111 354.044C389.238 353.849 389.391 353.678 389.518 353.482C392.489 349.306 395.308 344.982 398 340.512L217 240V441C222.359 441 227.666 440.805 232.924 440.414C233.152 440.414 233.381 440.365 233.609 440.365C234.93 440.267 236.225 440.145 237.546 440.023C238.511 439.925 239.476 439.828 240.415 439.73C240.949 439.681 241.508 439.608 242.041 439.559C261.647 437.263 280.872 432.329 299.03 424.879C299.538 424.659 300.046 424.464 300.554 424.244C301.443 423.878 302.306 423.511 303.17 423.12C304.364 422.607 305.557 422.07 306.751 421.508C306.954 421.411 307.157 421.313 307.386 421.215C312.135 419.017 316.833 416.647 321.481 414.058C326.128 411.494 330.623 408.758 334.966 405.9C335.144 405.778 335.347 405.656 335.525 405.534C336.617 404.825 337.684 404.093 338.776 403.335C339.563 402.798 340.325 402.261 341.112 401.699C341.544 401.381 342.001 401.064 342.433 400.746C358.229 389.339 372.299 375.808 384.159 360.615C384.489 360.199 384.819 359.76 385.149 359.345C385.734 358.612 386.292 357.855 386.851 357.097V357.146Z" fill="#FDC8D5"/>
<path d="M216.952 239.743V96.8984C213.122 96.8984 209.324 97.0352 205.574 97.3087C205.415 97.3087 205.24 97.3391 205.081 97.3543C204.144 97.4303 203.206 97.5063 202.268 97.5975C201.585 97.6582 200.902 97.7342 200.218 97.8102C199.821 97.8558 199.44 97.9014 199.042 97.9318C185.026 99.5578 171.295 103.083 158.312 108.372C157.946 108.524 157.581 108.676 157.215 108.827C156.595 109.086 155.96 109.359 155.34 109.618C154.482 109.982 153.624 110.362 152.781 110.757C152.638 110.818 152.479 110.894 152.336 110.955C148.935 112.52 145.582 114.207 142.277 116.046C138.955 117.869 135.745 119.814 132.646 121.835C132.503 121.927 132.376 122.018 132.233 122.109C131.455 122.626 130.692 123.142 129.929 123.659C129.373 124.039 128.816 124.434 128.26 124.829C127.942 125.057 127.625 125.27 127.323 125.498C116.04 133.613 105.98 143.217 97.4938 154.021C97.2554 154.325 97.017 154.629 96.7946 154.933C96.3814 155.465 95.9841 155.997 95.5868 156.528C95.0465 157.258 94.4903 158.002 93.9658 158.747C93.8705 158.884 93.7751 159.005 93.6798 159.142C91.5503 162.121 89.532 165.19 87.625 168.351L217 239.773L216.952 239.743Z" fill="#FD8EB9"/>
<path d="M426 124.967C422.919 119.878 419.633 114.919 416.211 110.123C416.074 109.928 415.903 109.699 415.766 109.504C414.91 108.296 414.02 107.122 413.13 105.948C412.48 105.099 411.829 104.218 411.179 103.37C410.802 102.881 410.426 102.391 410.049 101.902C396.358 84.5135 380.099 69.0496 361.856 55.9674C361.342 55.6085 360.829 55.2497 360.315 54.8908C359.425 54.2709 358.535 53.6511 357.611 53.0312C356.379 52.183 355.147 51.3674 353.88 50.5192C353.675 50.3887 353.435 50.2255 353.23 50.095C348.198 46.8326 343.03 43.7007 337.656 40.7645C332.316 37.8284 326.874 35.0879 321.397 32.5759C321.158 32.478 320.918 32.3475 320.679 32.2497C319.309 31.6298 317.906 31.0099 316.537 30.4227C315.544 29.9986 314.517 29.5745 313.49 29.1504C312.909 28.922 312.327 28.661 311.745 28.4326C290.763 19.9177 268.583 14.2411 245.923 11.6312C245.307 11.566 244.657 11.5007 244.041 11.4355C242.945 11.305 241.816 11.2071 240.72 11.1092C239.214 10.9787 237.708 10.8482 236.168 10.7177C235.894 10.7177 235.62 10.6851 235.381 10.6525C229.322 10.2284 223.195 10 217 10V240L425.966 125L426 124.967Z" fill="#FC7530"/>
<path d="M217 239.784L314.424 293.773C315.865 291.372 317.205 288.95 318.433 286.496C318.489 286.388 318.534 286.281 318.589 286.174C318.891 285.552 319.193 284.941 319.483 284.32C319.695 283.87 319.907 283.419 320.108 282.958C320.231 282.69 320.343 282.433 320.466 282.165C324.631 272.776 327.401 262.85 328.685 252.721C328.718 252.443 328.752 252.153 328.785 251.875C328.841 251.382 328.897 250.889 328.953 250.385C329.02 249.71 329.087 249.034 329.143 248.348C329.143 248.23 329.165 248.112 329.176 247.995C329.388 245.283 329.5 242.539 329.5 239.773C329.5 237.008 329.388 234.264 329.176 231.552C329.176 231.434 329.154 231.317 329.143 231.199C329.087 230.523 329.02 229.837 328.953 229.162C328.897 228.669 328.841 228.176 328.785 227.672C328.752 227.394 328.718 227.104 328.685 226.825C327.401 216.686 324.631 206.771 320.466 197.382C320.343 197.114 320.231 196.856 320.108 196.588C319.907 196.138 319.695 195.677 319.483 195.227C319.193 194.606 318.891 193.984 318.589 193.373C318.534 193.266 318.489 193.159 318.433 193.051C317.205 190.597 315.865 188.174 314.424 185.773L217 239.763V239.784Z" fill="#9C51D0"/>
<path d="M217 447.536C336.293 447.536 433 354.688 433 240.155C433 125.621 336.293 32.7734 217 32.7734C97.7065 32.7734 1 125.621 1 240.155C1 354.688 97.7065 447.536 217 447.536Z" stroke="white" stroke-width="2" stroke-miterlimit="10"/>
<path d="M216.999 406.06C312.434 406.06 389.799 331.782 389.799 240.155C389.799 148.528 312.434 74.25 216.999 74.25C121.564 74.25 44.1992 148.528 44.1992 240.155C44.1992 331.782 121.564 406.06 216.999 406.06Z" stroke="white" stroke-width="2" stroke-miterlimit="10"/>
<path d="M216.998 364.584C288.575 364.584 346.598 308.876 346.598 240.155C346.598 171.435 288.575 115.727 216.998 115.727C145.422 115.727 87.3984 171.435 87.3984 240.155C87.3984 308.876 145.422 364.584 216.998 364.584Z" stroke="white" stroke-width="2" stroke-miterlimit="10"/>
<path d="M217.002 323.108C264.719 323.108 303.402 285.969 303.402 240.156C303.402 194.342 264.719 157.203 217.002 157.203C169.284 157.203 130.602 194.342 130.602 240.156C130.602 285.969 169.284 323.108 217.002 323.108Z" stroke="white" stroke-width="2" stroke-miterlimit="10"/>
<path d="M217.001 281.624C240.859 281.624 260.201 263.055 260.201 240.148C260.201 217.241 240.859 198.672 217.001 198.672C193.142 198.672 173.801 217.241 173.801 240.148C173.801 263.055 193.142 281.624 217.001 281.624Z" stroke="white" stroke-width="2" stroke-miterlimit="10"/>
<path d="M199.936 14.1644L200.188 9.74844H204.808V10.7204H201.22L201.076 13.1804H202.288C204.268 13.1804 205.204 14.2604 205.204 15.7484C205.204 17.3564 203.956 18.3884 202.276 18.3884C200.836 18.3884 199.864 17.8004 199.192 16.6844L200.14 16.0964C200.656 17.0324 201.352 17.4164 202.264 17.4164C203.32 17.4164 204.1 16.8044 204.1 15.7844C204.1 14.8124 203.416 14.1644 202.24 14.1644H199.936Z" fill="#282828"/>
<path d="M202.37 182.875V175.567L200.15 176.767L199.598 175.999L202.358 174.475H203.438V182.875H202.37Z" fill="#282828"/>
<path d="M199.516 141.695V140.723L202.36 137.795C203.344 136.763 203.788 136.295 203.788 135.407C203.788 134.531 203.152 134.027 202.3 134.027C201.412 134.027 200.836 134.471 200.344 135.287L199.456 134.747C200.14 133.679 201.076 133.055 202.384 133.055C203.788 133.055 204.904 133.967 204.904 135.335C204.904 136.475 204.16 137.327 203.152 138.383L200.848 140.723H205.132V141.695H199.516Z" fill="#282828"/>
<path d="M205.204 98.1996C205.204 99.7236 203.968 100.756 202.276 100.756C200.824 100.756 199.864 100.168 199.192 99.0516L200.14 98.4636C200.656 99.3876 201.328 99.7836 202.264 99.7836C203.308 99.7836 204.088 99.1716 204.088 98.1516C204.088 97.2036 203.416 96.5436 202.312 96.5436H200.884V95.5716H202.144C203.104 95.5716 203.716 94.9956 203.716 94.1796C203.716 93.3276 203.08 92.8476 202.216 92.8476C201.46 92.8476 200.872 93.2316 200.476 93.9636L199.576 93.4116C200.176 92.4276 201.064 91.8756 202.288 91.8756C203.74 91.8756 204.82 92.7516 204.82 94.0836C204.82 94.8996 204.436 95.5956 203.716 95.9916C204.688 96.3876 205.204 97.2276 205.204 98.1996Z" fill="#282828"/>
<path d="M199.18 58.3807V57.4087L203.128 52.4047H204.436V57.4087H205.408V58.3807H204.436V60.8047H203.356V58.3807H199.18ZM200.332 57.4087H203.356V53.5807L200.332 57.4087Z" fill="#282828"/>
</svg>
